<!--?xml version="1.0" encoding="utf-8"?-->
<!-- Generator: Adobe Illustrator 18.1.1, SVG Export Plug-In . SVG Version: 6.00 Build 0)  -->

<svg version="1.1" id="_x32_" xmlns="http://www.w3.org/2000/svg" xmlns:xlink="http://www.w3.org/1999/xlink" x="0px" y="0px" viewBox="0 0 512 512" style="width: 256px; height: 256px; opacity: 1;" xml:space="preserve">
<style type="text/css">
	.st0{fill:#fff;}
</style>
<g>
	<path class="st0" d="M443.769,401.17c-12.685-18.998-31.946-29.5-50.046-36.316c-9.079-3.422-17.954-5.934-25.769-8.072
		c-7.802-2.124-14.594-3.915-19.154-5.629c-7.968-2.971-16.398-6.802-22.274-10.94c-2.943-2.041-5.206-4.151-6.514-5.956
		c-1.329-1.832-1.69-3.11-1.697-4.213c0-7.67,0-17.27,0-29.889c10.204-11.349,24.864-28.952,30.884-56.841
		c2.103-0.951,4.186-2.02,6.192-3.415c4.988-3.442,9.229-8.454,12.81-15.25c3.616-6.83,6.813-15.569,10.227-27.508h0.004
		c1.725-6.066,2.523-11.321,2.527-16.006c0.007-5.4-1.108-10.093-3.148-13.896c-3.057-5.762-8.024-8.968-12.043-10.433
		c-0.44-0.159-0.833-0.256-1.253-0.382c0-5.72,0-14.361,0-22.802h13.889l1.586-5.727c0.128-0.485,2.498-9.134,2.505-22.017
		c-0.003-9.787-1.381-22.059-6.323-34.942c-4.928-12.869-13.498-26.307-27.484-38.038h-0.004
		c-10.922-9.176-22.378-17.561-37.073-23.517C296.918,3.415,279.215-0.007,255.997,0c-23.218-0.007-40.922,3.415-55.616,9.384
		c-14.694,5.956-26.151,14.34-37.073,23.517l-0.052,0.042c-13.956,11.724-22.514,25.141-27.435,37.996
		c-4.942,12.883-6.32,25.154-6.323,34.942c0.007,12.883,2.378,21.532,2.506,22.017l1.586,5.727h13.896c0,8.448,0,17.11,0,22.816
		c-1.721,0.548-3.543,1.249-5.483,2.436c-2.877,1.784-5.789,4.56-7.813,8.364c-2.041,3.803-3.154,8.496-3.148,13.896
		c0.004,4.692,0.802,9.954,2.53,16.006c4.567,15.909,8.69,26.182,14.031,33.72c2.665,3.741,5.702,6.747,9.006,9.037
		c2.006,1.395,4.088,2.464,6.191,3.415c6.022,27.889,20.682,45.492,30.885,56.841c0,12.626,0,22.219,0,29.889
		c0.004,0.937-0.375,2.304-1.839,4.248c-2.141,2.888-6.587,6.379-11.87,9.35c-5.272,2.999-11.331,5.595-16.638,7.455h0.003
		c-6.223,2.207-16.256,4.511-27.494,7.732c-16.884,4.88-36.846,11.91-53.093,25.842c-8.103,6.962-15.225,15.708-20.23,26.578
		c-5.018,10.87-7.885,23.773-7.878,38.877c0,3.506,0.153,7.128,0.465,10.877c0.233,2.638,1.236,4.768,2.402,6.524
		c2.242,3.29,5.203,5.727,8.92,8.232c6.501,4.304,15.51,8.51,27.046,12.64c34.522,12.314,91.689,23.579,162.52,23.6
		c57.549-0.007,106.123-7.476,140.79-16.853c17.353-4.7,31.201-9.85,41.206-14.993c5.012-2.589,9.065-5.15,12.282-7.954
		c1.607-1.417,3.02-2.902,4.206-4.672c1.166-1.756,2.17-3.886,2.402-6.524c0.312-3.749,0.465-7.358,0.465-10.85
		C457.377,430.018,452.205,413.79,443.769,401.17z M145.99,117.986c-0.444-3.082-0.857-7.219-0.854-12.105
		c-0.004-8.322,1.187-18.679,5.282-29.334c4.11-10.662,11.05-21.663,22.944-31.666l0.072-0.062
		c4.901-4.102,9.697-7.83,14.691-11.182c4.102,3.498,13.757,11.21,33.814,25.113c-4.984-11.397-6.032-28.75-6.216-38.134
		c10.772-3.124,23.683-4.97,40.272-4.977c16.59,0.007,29.5,1.853,40.273,4.977c-0.184,9.384-1.232,26.737-6.216,38.134
		c20.056-13.903,29.712-21.614,33.814-25.113c4.994,3.352,9.787,7.073,14.684,11.175l0.08,0.069
		c11.897,9.996,18.835,20.997,22.944,31.666c4.096,10.654,5.286,21.004,5.282,29.334c0,4.9-0.409,9.023-0.857,12.105H255.997v0.007
		L145.99,117.986z M348.876,157.911c0,3.144,0,5.095,0,5.095v5.22l-2.724,1.311l-90.155,2.617l-90.155-2.617l-2.718-1.311v-5.213
		c0,0,0-1.965,0-5.116l13.296-24.273h79.577h79.576L348.876,157.911z M177.215,236.284l-0.792-4.477l-4.279-1.528
		c-2.721-0.972-4.8-1.964-6.604-3.22c-2.676-1.888-5.102-4.463-7.93-9.746c-2.794-5.248-5.762-13.084-9.003-24.46
		c-1.42-4.977-1.93-8.843-1.93-11.716c0.006-1.631,0.163-2.929,0.395-3.97c2.971,6.024,12.702,24.822,24.405,37.412
		c14.091,15.16,39.444,21.212,50.716,15.16c11.265-6.067,33.803-24.246,33.803-24.246s22.538,18.179,33.804,24.246
		c11.272,6.052,36.625,0,50.716-15.16c11.709-12.591,21.448-31.416,24.408-37.427c0.236,1.048,0.392,2.346,0.4,3.985
		c0,2.874-0.51,6.732-1.934,11.716h0.004c-4.31,15.187-8.18,24.016-11.723,28.917c-1.774,2.47-3.401,4.026-5.21,5.289
		c-1.804,1.256-3.884,2.249-6.604,3.22l-4.28,1.528l-0.791,4.477c-5.001,28.021-19.435,43.777-30.1,55.654l-2.01,2.228v3.006
		c0,7.184,0,13.375,0,18.817h-22.541c-2.44,0-4.623,1.569-5.393,3.887l-18.745,56.217l-18.744-56.217
		c-0.77-2.318-2.954-3.887-5.393-3.887h-22.534c0-5.449,0-11.633,0-18.817v-3.006l-2.01-2.228
		C196.65,280.061,182.216,264.305,177.215,236.284z M441.335,458.997l-0.68,0.806c-1.156,1.166-3.477,2.922-6.747,4.783
		c-7.698,4.442-20.497,9.55-37.18,14.319v-30.409h-11.37v33.428c-5.167,1.284-10.533,2.54-16.273,3.707
		c-30.586,6.254-69.137,10.731-113.085,10.731c-52.236,0.007-96.708-6.359-129.366-14.473v-33.394h-11.37v30.423
		c-14.635-4.158-26.269-8.628-34.102-12.668c-4.262-2.186-7.396-4.275-9.128-5.803c-0.739-0.652-1.156-1.138-1.368-1.416
		c-0.24-3.088-0.385-6.074-0.385-8.898c0.028-17.555,4.317-30.375,10.95-40.425c9.916-15.021,25.842-24.211,42.472-30.472
		c8.288-3.131,16.666-5.505,24.357-7.566c7.705-2.068,14.67-3.79,20.473-5.823h0.004c8.052-2.853,17.415-6.99,25.324-12.473
		c3.95-2.763,7.569-5.858,10.44-9.628c2.839-3.727,5.018-8.378,5.022-13.702c0-0.84,0-1.798,0-2.687h18.436l22.843,68.516
		c0.774,2.325,2.936,3.887,5.393,3.887c2.457,0,4.62-1.562,5.393-3.887l22.844-68.516h18.442c0,0.888,0,1.847,0,2.687
		c-0.007,5.157,1.999,9.787,4.741,13.486c4.158,5.581,9.936,9.71,16.225,13.313c6.303,3.582,13.192,6.524,19.682,8.954
		c7.742,2.874,17.616,5.137,28.407,8.288c16.152,4.657,33.994,11.217,47.286,22.628c6.664,5.706,12.244,12.55,16.245,21.178
		c3.995,8.628,6.446,19.109,6.452,32.262C441.714,452.965,441.571,455.922,441.335,458.997z"></path>
	<path class="st0" d="M161.309,34.574l1.947-1.631c0.017-0.014,0.031-0.028,0.048-0.042L161.309,34.574z"></path>
	<path class="st0" d="M179.293,78.06c0,0,1.777,43.702,55.974,25.404C229.048,91.269,205.947,62.818,179.293,78.06z"></path>
	<path class="st0" d="M272.284,54.683c-1.777-28.452-16.288-35.9-16.288-35.9s-14.51,7.448-16.287,35.9
		c0,0,2.072,37.274,16.287,53.53C270.212,91.956,272.284,54.683,272.284,54.683z"></path>
	<path class="st0" d="M332.699,78.06c-26.654-15.242-49.754,13.209-55.973,25.404C330.923,121.762,332.699,78.06,332.699,78.06z"></path>
	<rect x="150.016" y="441.388" class="st0" width="216.786" height="16.881"></rect>
</g>
</svg>
